<svg xmlns="http://www.w3.org/2000/svg" xmlns:ns1="http://www.w3.org/1999/xlink" height="264.131875pt" version="1.1" viewBox="0 0 356.2 264.131875" width="356.2pt">
 <defs>
  <style type="text/css">
*{stroke-linecap:butt;stroke-linejoin:round;}
  </style>
 </defs>
 <g id="figure_1">
  <g id="patch_1">
   <path d="M 0 264.131875  L 356.2 264.131875  L 356.2 0  L 0 0  z " style="fill:none;" />
  </g>
  <g id="axes_1">
   <g id="patch_2">
    <path d="M 10.7 224.64  L 345.5 224.64  L 345.5 7.2  L 10.7 7.2  z " style="fill:none;" />
   </g>
   <g id="matplotlib.axis_1">
    <g id="xtick_1">
     <g id="line2d_1">
      <defs>
       <path d="M 0 0  L 0 3.5  " id="mb650cb7ea8" style="stroke:#555555;stroke-width:0.8;" />
      </defs>
      <g>
       <use style="fill:#555555;stroke:#555555;stroke-width:0.8;" x="42.0875" y="224.64" ns1:href="#mb650cb7ea8" />
      </g>
     </g>
     <g id="text_1">
      <text style="text-anchor:middle;font-family:-apple-system,BlinkMacSystemFont,&quot;Segoe UI&quot;,Roboto,&quot;Helvetica Neue&quot;,Arial,&quot;Noto Sans&quot;,sans-serif,&quot;Apple Color Emoji&quot;,&quot;Segoe UI Emoji&quot;,&quot;Segoe UI Symbol&quot;,&quot;Noto Color Emoji&quot;;font-size:0.7em;color:#6c757d" transform="rotate(-0, 42.0875, 239.238437)" x="42.0875" y="239.238437">55</text>
     </g>
    </g>
    <g id="xtick_2">
     <g id="line2d_2">
      <g>
       <use style="fill:#555555;stroke:#555555;stroke-width:0.8;" x="94.4" y="224.64" ns1:href="#mb650cb7ea8" />
      </g>
     </g>
     <g id="text_2">
      <text style="text-anchor:middle;font-family:-apple-system,BlinkMacSystemFont,&quot;Segoe UI&quot;,Roboto,&quot;Helvetica Neue&quot;,Arial,&quot;Noto Sans&quot;,sans-serif,&quot;Apple Color Emoji&quot;,&quot;Segoe UI Emoji&quot;,&quot;Segoe UI Symbol&quot;,&quot;Noto Color Emoji&quot;;font-size:0.7em;color:#6c757d" transform="rotate(-0, 94.4, 239.238437)" x="94.4" y="239.238437">60</text>
     </g>
    </g>
    <g id="xtick_3">
     <g id="line2d_3">
      <g>
       <use style="fill:#555555;stroke:#555555;stroke-width:0.8;" x="146.7125" y="224.64" ns1:href="#mb650cb7ea8" />
      </g>
     </g>
     <g id="text_3">
      <text style="text-anchor:middle;font-family:-apple-system,BlinkMacSystemFont,&quot;Segoe UI&quot;,Roboto,&quot;Helvetica Neue&quot;,Arial,&quot;Noto Sans&quot;,sans-serif,&quot;Apple Color Emoji&quot;,&quot;Segoe UI Emoji&quot;,&quot;Segoe UI Symbol&quot;,&quot;Noto Color Emoji&quot;;font-size:0.7em;color:#6c757d" transform="rotate(-0, 146.7125, 239.238437)" x="146.7125" y="239.238437">65</text>
     </g>
    </g>
    <g id="xtick_4">
     <g id="line2d_4">
      <g>
       <use style="fill:#555555;stroke:#555555;stroke-width:0.8;" x="199.025" y="224.64" ns1:href="#mb650cb7ea8" />
      </g>
     </g>
     <g id="text_4">
      <text style="text-anchor:middle;font-family:-apple-system,BlinkMacSystemFont,&quot;Segoe UI&quot;,Roboto,&quot;Helvetica Neue&quot;,Arial,&quot;Noto Sans&quot;,sans-serif,&quot;Apple Color Emoji&quot;,&quot;Segoe UI Emoji&quot;,&quot;Segoe UI Symbol&quot;,&quot;Noto Color Emoji&quot;;font-size:0.7em;color:#6c757d" transform="rotate(-0, 199.025, 239.238437)" x="199.025" y="239.238437">70</text>
     </g>
    </g>
    <g id="xtick_5">
     <g id="line2d_5">
      <g>
       <use style="fill:#555555;stroke:#555555;stroke-width:0.8;" x="251.3375" y="224.64" ns1:href="#mb650cb7ea8" />
      </g>
     </g>
     <g id="text_5">
      <text style="text-anchor:middle;font-family:-apple-system,BlinkMacSystemFont,&quot;Segoe UI&quot;,Roboto,&quot;Helvetica Neue&quot;,Arial,&quot;Noto Sans&quot;,sans-serif,&quot;Apple Color Emoji&quot;,&quot;Segoe UI Emoji&quot;,&quot;Segoe UI Symbol&quot;,&quot;Noto Color Emoji&quot;;font-size:0.7em;color:#6c757d" transform="rotate(-0, 251.3375, 239.238437)" x="251.3375" y="239.238437">75</text>
     </g>
    </g>
    <g id="xtick_6">
     <g id="line2d_6">
      <g>
       <use style="fill:#555555;stroke:#555555;stroke-width:0.8;" x="303.65" y="224.64" ns1:href="#mb650cb7ea8" />
      </g>
     </g>
     <g id="text_6">
      <text style="text-anchor:middle;font-family:-apple-system,BlinkMacSystemFont,&quot;Segoe UI&quot;,Roboto,&quot;Helvetica Neue&quot;,Arial,&quot;Noto Sans&quot;,sans-serif,&quot;Apple Color Emoji&quot;,&quot;Segoe UI Emoji&quot;,&quot;Segoe UI Symbol&quot;,&quot;Noto Color Emoji&quot;;font-size:0.7em;color:#6c757d" transform="rotate(-0, 303.65, 239.238437)" x="303.65" y="239.238437">80</text>
     </g>
    </g>
    <g id="text_7">
     <text style="text-anchor:middle;font-family:-apple-system,BlinkMacSystemFont,&quot;Segoe UI&quot;,Roboto,&quot;Helvetica Neue&quot;,Arial,&quot;Noto Sans&quot;,sans-serif,&quot;Apple Color Emoji&quot;,&quot;Segoe UI Emoji&quot;,&quot;Segoe UI Symbol&quot;,&quot;Noto Color Emoji&quot;;font-size:0.7em;color:#6c757d" transform="rotate(-0, 178.1, 254.43625)" x="178.1" y="254.43625">Height (inches)</text>
    </g>
   </g>
   <g id="patch_3">
    <path clip-path="url(#p660aa5cbed)" d="M 9.795162 224.64  L 13.664703 224.64  L 13.664703 224.617629  L 9.795162 224.617629  z " style="fill:#4b89b9;opacity:0.4;" />
   </g>
   <g id="patch_4">
    <path clip-path="url(#p660aa5cbed)" d="M 13.664703 224.64  L 17.534244 224.64  L 17.534244 224.634407  L 13.664703 224.634407  z " style="fill:#4b89b9;opacity:0.4;" />
   </g>
   <g id="patch_5">
    <path clip-path="url(#p660aa5cbed)" d="M 17.534244 224.64  L 21.403784 224.64  L 21.403784 224.612036  L 17.534244 224.612036  z " style="fill:#4b89b9;opacity:0.4;" />
   </g>
   <g id="patch_6">
    <path clip-path="url(#p660aa5cbed)" d="M 21.403784 224.64  L 25.273325 224.64  L 25.273325 224.628814  L 21.403784 224.628814  z " style="fill:#4b89b9;opacity:0.4;" />
   </g>
   <g id="patch_7">
    <path clip-path="url(#p660aa5cbed)" d="M 25.273325 224.64  L 29.142865 224.64  L 29.142865 224.584072  L 25.273325 224.584072  z " style="fill:#4b89b9;opacity:0.4;" />
   </g>
   <g id="patch_8">
    <path clip-path="url(#p660aa5cbed)" d="M 29.142865 224.64  L 33.012406 224.64  L 33.012406 224.567293  L 29.142865 224.567293  z " style="fill:#4b89b9;opacity:0.4;" />
   </g>
   <g id="patch_9">
    <path clip-path="url(#p660aa5cbed)" d="M 33.012406 224.64  L 36.881947 224.64  L 36.881947 224.544922  L 33.012406 224.544922  z " style="fill:#4b89b9;opacity:0.4;" />
   </g>
   <g id="patch_10">
    <path clip-path="url(#p660aa5cbed)" d="M 36.881947 224.64  L 40.751487 224.64  L 40.751487 224.528143  L 36.881947 224.528143  z " style="fill:#4b89b9;opacity:0.4;" />
   </g>
   <g id="patch_11">
    <path clip-path="url(#p660aa5cbed)" d="M 40.751487 224.64  L 44.621028 224.64  L 44.621028 224.42188  L 40.751487 224.42188  z " style="fill:#4b89b9;opacity:0.4;" />
   </g>
   <g id="patch_12">
    <path clip-path="url(#p660aa5cbed)" d="M 44.621028 224.64  L 48.490568 224.64  L 48.490568 224.360359  L 44.621028 224.360359  z " style="fill:#4b89b9;opacity:0.4;" />
   </g>
   <g id="patch_13">
    <path clip-path="url(#p660aa5cbed)" d="M 48.490568 224.64  L 52.360109 224.64  L 52.360109 224.254095  L 48.490568 224.254095  z " style="fill:#4b89b9;opacity:0.4;" />
   </g>
   <g id="patch_14">
    <path clip-path="url(#p660aa5cbed)" d="M 52.360109 224.64  L 56.22965 224.64  L 56.22965 224.052753  L 52.360109 224.052753  z " style="fill:#4b89b9;opacity:0.4;" />
   </g>
   <g id="patch_15">
    <path clip-path="url(#p660aa5cbed)" d="M 56.22965 224.64  L 60.09919 224.64  L 60.09919 223.974453  L 56.22965 223.974453  z " style="fill:#4b89b9;opacity:0.4;" />
   </g>
   <g id="patch_16">
    <path clip-path="url(#p660aa5cbed)" d="M 60.09919 224.64  L 63.968731 224.64  L 63.968731 223.622105  L 60.09919 223.622105  z " style="fill:#4b89b9;opacity:0.4;" />
   </g>
   <g id="patch_17">
    <path clip-path="url(#p660aa5cbed)" d="M 63.968731 224.64  L 67.838271 224.64  L 67.838271 223.370428  L 63.968731 223.370428  z " style="fill:#4b89b9;opacity:0.4;" />
   </g>
   <g id="patch_18">
    <path clip-path="url(#p660aa5cbed)" d="M 67.838271 224.64  L 71.707812 224.64  L 71.707812 223.029265  L 67.838271 223.029265  z " style="fill:#4b89b9;opacity:0.4;" />
   </g>
   <g id="patch_19">
    <path clip-path="url(#p660aa5cbed)" d="M 71.707812 224.64  L 75.577353 224.64  L 75.577353 222.425239  L 71.707812 222.425239  z " style="fill:#4b89b9;opacity:0.4;" />
   </g>
   <g id="patch_20">
    <path clip-path="url(#p660aa5cbed)" d="M 75.577353 224.64  L 79.446893 224.64  L 79.446893 221.513608  L 75.577353 221.513608  z " style="fill:#4b89b9;opacity:0.4;" />
   </g>
   <g id="patch_21">
    <path clip-path="url(#p660aa5cbed)" d="M 79.446893 224.64  L 83.316434 224.64  L 83.316434 220.434192  L 79.446893 220.434192  z " style="fill:#4b89b9;opacity:0.4;" />
   </g>
   <g id="patch_22">
    <path clip-path="url(#p660aa5cbed)" d="M 83.316434 224.64  L 87.185975 224.64  L 87.185975 219.416297  L 83.316434 219.416297  z " style="fill:#4b89b9;opacity:0.4;" />
   </g>
   <g id="patch_23">
    <path clip-path="url(#p660aa5cbed)" d="M 87.185975 224.64  L 91.055515 224.64  L 91.055515 218.146724  L 87.185975 218.146724  z " style="fill:#4b89b9;opacity:0.4;" />
   </g>
   <g id="patch_24">
    <path clip-path="url(#p660aa5cbed)" d="M 91.055515 224.64  L 94.925056 224.64  L 94.925056 216.323462  L 91.055515 216.323462  z " style="fill:#4b89b9;opacity:0.4;" />
   </g>
   <g id="patch_25">
    <path clip-path="url(#p660aa5cbed)" d="M 94.925056 224.64  L 98.794596 224.64  L 98.794596 214.38275  L 94.925056 214.38275  z " style="fill:#4b89b9;opacity:0.4;" />
   </g>
   <g id="patch_26">
    <path clip-path="url(#p660aa5cbed)" d="M 98.794596 224.64  L 102.664137 224.64  L 102.664137 211.782084  L 98.794596 211.782084  z " style="fill:#4b89b9;opacity:0.4;" />
   </g>
   <g id="patch_27">
    <path clip-path="url(#p660aa5cbed)" d="M 102.664137 224.64  L 106.533678 224.64  L 106.533678 208.191487  L 102.664137 208.191487  z " style="fill:#4b89b9;opacity:0.4;" />
   </g>
   <g id="patch_28">
    <path clip-path="url(#p660aa5cbed)" d="M 106.533678 224.64  L 110.403218 224.64  L 110.403218 204.466662  L 106.533678 204.466662  z " style="fill:#4b89b9;opacity:0.4;" />
   </g>
   <g id="patch_29">
    <path clip-path="url(#p660aa5cbed)" d="M 110.403218 224.64  L 114.272759 224.64  L 114.272759 199.869356  L 110.403218 199.869356  z " style="fill:#4b89b9;opacity:0.4;" />
   </g>
   <g id="patch_30">
    <path clip-path="url(#p660aa5cbed)" d="M 114.272759 224.64  L 118.142299 224.64  L 118.142299 195.462206  L 114.272759 195.462206  z " style="fill:#4b89b9;opacity:0.4;" />
   </g>
   <g id="patch_31">
    <path clip-path="url(#p660aa5cbed)" d="M 118.142299 224.64  L 122.01184 224.64  L 122.01184 189.852598  L 118.142299 189.852598  z " style="fill:#4b89b9;opacity:0.4;" />
   </g>
   <g id="patch_32">
    <path clip-path="url(#p660aa5cbed)" d="M 122.01184 224.64  L 125.881381 224.64  L 125.881381 182.872746  L 122.01184 182.872746  z " style="fill:#4b89b9;opacity:0.4;" />
   </g>
   <g id="patch_33">
    <path clip-path="url(#p660aa5cbed)" d="M 125.881381 224.64  L 129.750921 224.64  L 129.750921 175.876116  L 125.881381 175.876116  z " style="fill:#4b89b9;opacity:0.4;" />
   </g>
   <g id="patch_34">
    <path clip-path="url(#p660aa5cbed)" d="M 129.750921 224.64  L 133.620462 224.64  L 133.620462 167.615506  L 129.750921 167.615506  z " style="fill:#4b89b9;opacity:0.4;" />
   </g>
   <g id="patch_35">
    <path clip-path="url(#p660aa5cbed)" d="M 133.620462 224.64  L 137.490002 224.64  L 137.490002 160.372791  L 133.620462 160.372791  z " style="fill:#4b89b9;opacity:0.4;" />
   </g>
   <g id="patch_36">
    <path clip-path="url(#p660aa5cbed)" d="M 137.490002 224.64  L 141.359543 224.64  L 141.359543 150.216212  L 137.490002 150.216212  z " style="fill:#4b89b9;opacity:0.4;" />
   </g>
   <g id="patch_37">
    <path clip-path="url(#p660aa5cbed)" d="M 141.359543 224.64  L 145.229084 224.64  L 145.229084 138.896324  L 141.359543 138.896324  z " style="fill:#4b89b9;opacity:0.4;" />
   </g>
   <g id="patch_38">
    <path clip-path="url(#p660aa5cbed)" d="M 145.229084 224.64  L 149.098624 224.64  L 149.098624 128.94668  L 145.229084 128.94668  z " style="fill:#4b89b9;opacity:0.4;" />
   </g>
   <g id="patch_39">
    <path clip-path="url(#p660aa5cbed)" d="M 149.098624 224.64  L 152.968165 224.64  L 152.968165 117.190551  L 149.098624 117.190551  z " style="fill:#4b89b9;opacity:0.4;" />
   </g>
   <g id="patch_40">
    <path clip-path="url(#p660aa5cbed)" d="M 152.968165 224.64  L 156.837705 224.64  L 156.837705 106.290126  L 152.968165 106.290126  z " style="fill:#4b89b9;opacity:0.4;" />
   </g>
   <g id="patch_41">
    <path clip-path="url(#p660aa5cbed)" d="M 156.837705 224.64  L 160.707246 224.64  L 160.707246 94.299098  L 156.837705 94.299098  z " style="fill:#4b89b9;opacity:0.4;" />
   </g>
   <g id="patch_42">
    <path clip-path="url(#p660aa5cbed)" d="M 160.707246 224.64  L 164.576787 224.64  L 164.576787 82.654826  L 160.707246 82.654826  z " style="fill:#4b89b9;opacity:0.4;" />
   </g>
   <g id="patch_43">
    <path clip-path="url(#p660aa5cbed)" d="M 164.576787 224.64  L 168.446327 224.64  L 168.446327 72.347241  L 164.576787 72.347241  z " style="fill:#4b89b9;opacity:0.4;" />
   </g>
   <g id="patch_44">
    <path clip-path="url(#p660aa5cbed)" d="M 168.446327 224.64  L 172.315868 224.64  L 172.315868 63.219742  L 168.446327 63.219742  z " style="fill:#4b89b9;opacity:0.4;" />
   </g>
   <g id="patch_45">
    <path clip-path="url(#p660aa5cbed)" d="M 172.315868 224.64  L 176.185408 224.64  L 176.185408 52.123568  L 172.315868 52.123568  z " style="fill:#4b89b9;opacity:0.4;" />
   </g>
   <g id="patch_46">
    <path clip-path="url(#p660aa5cbed)" d="M 176.185408 224.64  L 180.054949 224.64  L 180.054949 43.197411  L 176.185408 43.197411  z " style="fill:#4b89b9;opacity:0.4;" />
   </g>
   <g id="patch_47">
    <path clip-path="url(#p660aa5cbed)" d="M 180.054949 224.64  L 183.92449 224.64  L 183.92449 35.999439  L 180.054949 35.999439  z " style="fill:#4b89b9;opacity:0.4;" />
   </g>
   <g id="patch_48">
    <path clip-path="url(#p660aa5cbed)" d="M 183.92449 224.64  L 187.79403 224.64  L 187.79403 28.65046  L 183.92449 28.65046  z " style="fill:#4b89b9;opacity:0.4;" />
   </g>
   <g id="patch_49">
    <path clip-path="url(#p660aa5cbed)" d="M 187.79403 224.64  L 191.663571 224.64  L 191.663571 23.488278  L 187.79403 23.488278  z " style="fill:#4b89b9;opacity:0.4;" />
   </g>
   <g id="patch_50">
    <path clip-path="url(#p660aa5cbed)" d="M 191.663571 224.64  L 195.533111 224.64  L 195.533111 19.528555  L 191.663571 19.528555  z " style="fill:#4b89b9;opacity:0.4;" />
   </g>
   <g id="patch_51">
    <path clip-path="url(#p660aa5cbed)" d="M 195.533111 224.64  L 199.402652 224.64  L 199.402652 18.628109  L 195.533111 18.628109  z " style="fill:#4b89b9;opacity:0.4;" />
   </g>
   <g id="patch_52">
    <path clip-path="url(#p660aa5cbed)" d="M 199.402652 224.64  L 203.272193 224.64  L 203.272193 17.80037  L 199.402652 17.80037  z " style="fill:#4b89b9;opacity:0.4;" />
   </g>
   <g id="patch_53">
    <path clip-path="url(#p660aa5cbed)" d="M 203.272193 224.64  L 207.141733 224.64  L 207.141733 19.069943  L 203.272193 19.069943  z " style="fill:#4b89b9;opacity:0.4;" />
   </g>
   <g id="patch_54">
    <path clip-path="url(#p660aa5cbed)" d="M 207.141733 224.64  L 211.011274 224.64  L 211.011274 23.583356  L 207.141733 23.583356  z " style="fill:#4b89b9;opacity:0.4;" />
   </g>
   <g id="patch_55">
    <path clip-path="url(#p660aa5cbed)" d="M 211.011274 224.64  L 214.880815 224.64  L 214.880815 28.896545  L 211.011274 28.896545  z " style="fill:#4b89b9;opacity:0.4;" />
   </g>
   <g id="patch_56">
    <path clip-path="url(#p660aa5cbed)" d="M 214.880815 224.64  L 218.750355 224.64  L 218.750355 35.820468  L 214.880815 35.820468  z " style="fill:#4b89b9;opacity:0.4;" />
   </g>
   <g id="patch_57">
    <path clip-path="url(#p660aa5cbed)" d="M 218.750355 224.64  L 222.619896 224.64  L 222.619896 43.913293  L 218.750355 43.913293  z " style="fill:#4b89b9;opacity:0.4;" />
   </g>
   <g id="patch_58">
    <path clip-path="url(#p660aa5cbed)" d="M 222.619896 224.64  L 226.489436 224.64  L 226.489436 51.944597  L 222.619896 51.944597  z " style="fill:#4b89b9;opacity:0.4;" />
   </g>
   <g id="patch_59">
    <path clip-path="url(#p660aa5cbed)" d="M 226.489436 224.64  L 230.358977 224.64  L 230.358977 62.319297  L 226.489436 62.319297  z " style="fill:#4b89b9;opacity:0.4;" />
   </g>
   <g id="patch_60">
    <path clip-path="url(#p660aa5cbed)" d="M 230.358977 224.64  L 234.228518 224.64  L 234.228518 75.64701  L 230.358977 75.64701  z " style="fill:#4b89b9;opacity:0.4;" />
   </g>
   <g id="patch_61">
    <path clip-path="url(#p660aa5cbed)" d="M 234.228518 224.64  L 238.098058 224.64  L 238.098058 86.87182  L 234.228518 86.87182  z " style="fill:#4b89b9;opacity:0.4;" />
   </g>
   <g id="patch_62">
    <path clip-path="url(#p660aa5cbed)" d="M 238.098058 224.64  L 241.967599 224.64  L 241.967599 98.007144  L 238.098058 98.007144  z " style="fill:#4b89b9;opacity:0.4;" />
   </g>
   <g id="patch_63">
    <path clip-path="url(#p660aa5cbed)" d="M 241.967599 224.64  L 245.837139 224.64  L 245.837139 109.226361  L 241.967599 109.226361  z " style="fill:#4b89b9;opacity:0.4;" />
   </g>
   <g id="patch_64">
    <path clip-path="url(#p660aa5cbed)" d="M 245.837139 224.64  L 249.70668 224.64  L 249.70668 120.439985  L 245.837139 120.439985  z " style="fill:#4b89b9;opacity:0.4;" />
   </g>
   <g id="patch_65">
    <path clip-path="url(#p660aa5cbed)" d="M 249.70668 224.64  L 253.576221 224.64  L 253.576221 131.066362  L 249.70668 131.066362  z " style="fill:#4b89b9;opacity:0.4;" />
   </g>
   <g id="patch_66">
    <path clip-path="url(#p660aa5cbed)" d="M 253.576221 224.64  L 257.445761 224.64  L 257.445761 142.117794  L 253.576221 142.117794  z " style="fill:#4b89b9;opacity:0.4;" />
   </g>
   <g id="patch_67">
    <path clip-path="url(#p660aa5cbed)" d="M 257.445761 224.64  L 261.315302 224.64  L 261.315302 151.782204  L 257.445761 151.782204  z " style="fill:#4b89b9;opacity:0.4;" />
   </g>
   <g id="patch_68">
    <path clip-path="url(#p660aa5cbed)" d="M 261.315302 224.64  L 265.184842 224.64  L 265.184842 161.262051  L 261.315302 161.262051  z " style="fill:#4b89b9;opacity:0.4;" />
   </g>
   <g id="patch_69">
    <path clip-path="url(#p660aa5cbed)" d="M 265.184842 224.64  L 269.054383 224.64  L 269.054383 169.533847  L 265.184842 169.533847  z " style="fill:#4b89b9;opacity:0.4;" />
   </g>
   <g id="patch_70">
    <path clip-path="url(#p660aa5cbed)" d="M 269.054383 224.64  L 272.923924 224.64  L 272.923924 176.480141  L 269.054383 176.480141  z " style="fill:#4b89b9;opacity:0.4;" />
   </g>
   <g id="patch_71">
    <path clip-path="url(#p660aa5cbed)" d="M 272.923924 224.64  L 276.793464 224.64  L 276.793464 184.628895  L 272.923924 184.628895  z " style="fill:#4b89b9;opacity:0.4;" />
   </g>
   <g id="patch_72">
    <path clip-path="url(#p660aa5cbed)" d="M 276.793464 224.64  L 280.663005 224.64  L 280.663005 190.719486  L 276.793464 190.719486  z " style="fill:#4b89b9;opacity:0.4;" />
   </g>
   <g id="patch_73">
    <path clip-path="url(#p660aa5cbed)" d="M 280.663005 224.64  L 284.532545 224.64  L 284.532545 197.05057  L 280.663005 197.05057  z " style="fill:#4b89b9;opacity:0.4;" />
   </g>
   <g id="patch_74">
    <path clip-path="url(#p660aa5cbed)" d="M 284.532545 224.64  L 288.402086 224.64  L 288.402086 201.306713  L 284.532545 201.306713  z " style="fill:#4b89b9;opacity:0.4;" />
   </g>
   <g id="patch_75">
    <path clip-path="url(#p660aa5cbed)" d="M 288.402086 224.64  L 292.271627 224.64  L 292.271627 206.027062  L 288.402086 206.027062  z " style="fill:#4b89b9;opacity:0.4;" />
   </g>
   <g id="patch_76">
    <path clip-path="url(#p660aa5cbed)" d="M 292.271627 224.64  L 296.141167 224.64  L 296.141167 208.857034  L 292.271627 208.857034  z " style="fill:#4b89b9;opacity:0.4;" />
   </g>
   <g id="patch_77">
    <path clip-path="url(#p660aa5cbed)" d="M 296.141167 224.64  L 300.010708 224.64  L 300.010708 212.028168  L 296.141167 212.028168  z " style="fill:#4b89b9;opacity:0.4;" />
   </g>
   <g id="patch_78">
    <path clip-path="url(#p660aa5cbed)" d="M 300.010708 224.64  L 303.880248 224.64  L 303.880248 214.818991  L 300.010708 214.818991  z " style="fill:#4b89b9;opacity:0.4;" />
   </g>
   <g id="patch_79">
    <path clip-path="url(#p660aa5cbed)" d="M 303.880248 224.64  L 307.749789 224.64  L 307.749789 216.642253  L 303.880248 216.642253  z " style="fill:#4b89b9;opacity:0.4;" />
   </g>
   <g id="patch_80">
    <path clip-path="url(#p660aa5cbed)" d="M 307.749789 224.64  L 311.61933 224.64  L 311.61933 218.331288  L 307.749789 218.331288  z " style="fill:#4b89b9;opacity:0.4;" />
   </g>
   <g id="patch_81">
    <path clip-path="url(#p660aa5cbed)" d="M 311.61933 224.64  L 315.48887 224.64  L 315.48887 219.919652  L 311.61933 219.919652  z " style="fill:#4b89b9;opacity:0.4;" />
   </g>
   <g id="patch_82">
    <path clip-path="url(#p660aa5cbed)" d="M 315.48887 224.64  L 319.358411 224.64  L 319.358411 220.691462  L 315.48887 220.691462  z " style="fill:#4b89b9;opacity:0.4;" />
   </g>
   <g id="patch_83">
    <path clip-path="url(#p660aa5cbed)" d="M 319.358411 224.64  L 323.227952 224.64  L 323.227952 221.888328  L 319.358411 221.888328  z " style="fill:#4b89b9;opacity:0.4;" />
   </g>
   <g id="patch_84">
    <path clip-path="url(#p660aa5cbed)" d="M 323.227952 224.64  L 327.097492 224.64  L 327.097492 222.520317  L 323.227952 222.520317  z " style="fill:#4b89b9;opacity:0.4;" />
   </g>
   <g id="patch_85">
    <path clip-path="url(#p660aa5cbed)" d="M 327.097492 224.64  L 330.967033 224.64  L 330.967033 222.895037  L 327.097492 222.895037  z " style="fill:#4b89b9;opacity:0.4;" />
   </g>
   <g id="patch_86">
    <path clip-path="url(#p660aa5cbed)" d="M 330.967033 224.64  L 334.836573 224.64  L 334.836573 223.45432  L 330.967033 223.45432  z " style="fill:#4b89b9;opacity:0.4;" />
   </g>
   <g id="patch_87">
    <path clip-path="url(#p660aa5cbed)" d="M 334.836573 224.64  L 338.706114 224.64  L 338.706114 223.728369  L 334.836573 223.728369  z " style="fill:#4b89b9;opacity:0.4;" />
   </g>
   <g id="patch_88">
    <path clip-path="url(#p660aa5cbed)" d="M 338.706114 224.64  L 342.575655 224.64  L 342.575655 224.024789  L 338.706114 224.024789  z " style="fill:#4b89b9;opacity:0.4;" />
   </g>
   <g id="patch_89">
    <path clip-path="url(#p660aa5cbed)" d="M 342.575655 224.64  L 346.445195 224.64  L 346.445195 224.220538  L 342.575655 224.220538  z " style="fill:#4b89b9;opacity:0.4;" />
   </g>
   <g id="patch_90">
    <path clip-path="url(#p660aa5cbed)" d="M 346.445195 224.64  L 350.314736 224.64  L 350.314736 224.326802  L 346.445195 224.326802  z " style="fill:#4b89b9;opacity:0.4;" />
   </g>
   <g id="patch_91">
    <path clip-path="url(#p660aa5cbed)" d="M 350.314736 224.64  L 354.184276 224.64  L 354.184276 224.377137  L 350.314736 224.377137  z " style="fill:#4b89b9;opacity:0.4;" />
   </g>
   <g id="patch_92">
    <path clip-path="url(#p660aa5cbed)" d="M 354.184276 224.64  L 358.053817 224.64  L 358.053817 224.466622  L 354.184276 224.466622  z " style="fill:#4b89b9;opacity:0.4;" />
   </g>
   <g id="patch_93">
    <path clip-path="url(#p660aa5cbed)" d="M 358.053817 224.64  L 361.923358 224.64  L 361.923358 224.494586  L 358.053817 224.494586  z " style="fill:#4b89b9;opacity:0.4;" />
   </g>
   <g id="patch_94">
    <path clip-path="url(#p660aa5cbed)" d="M 361.923358 224.64  L 365.792898 224.64  L 365.792898 224.550515  L 361.923358 224.550515  z " style="fill:#4b89b9;opacity:0.4;" />
   </g>
   <g id="patch_95">
    <path clip-path="url(#p660aa5cbed)" d="M 365.792898 224.64  L 369.662439 224.64  L 369.662439 224.567293  L 365.792898 224.567293  z " style="fill:#4b89b9;opacity:0.4;" />
   </g>
   <g id="patch_96">
    <path clip-path="url(#p660aa5cbed)" d="M 369.662439 224.64  L 373.531979 224.64  L 373.531979 224.584072  L 369.662439 224.584072  z " style="fill:#4b89b9;opacity:0.4;" />
   </g>
   <g id="patch_97">
    <path clip-path="url(#p660aa5cbed)" d="M 373.531979 224.64  L 377.40152 224.64  L 377.40152 224.617629  L 373.531979 224.617629  z " style="fill:#4b89b9;opacity:0.4;" />
   </g>
   <g id="patch_98">
    <path clip-path="url(#p660aa5cbed)" d="M 377.40152 224.64  L 381.271061 224.64  L 381.271061 224.64  L 377.40152 224.64  z " style="fill:#4b89b9;opacity:0.4;" />
   </g>
   <g id="patch_99">
    <path clip-path="url(#p660aa5cbed)" d="M 381.271061 224.64  L 385.140601 224.64  L 385.140601 224.628814  L 381.271061 224.628814  z " style="fill:#4b89b9;opacity:0.4;" />
   </g>
   <g id="patch_100">
    <path clip-path="url(#p660aa5cbed)" d="M 385.140601 224.64  L 389.010142 224.64  L 389.010142 224.634407  L 385.140601 224.634407  z " style="fill:#4b89b9;opacity:0.4;" />
   </g>
   <g id="patch_101">
    <path clip-path="url(#p660aa5cbed)" d="M 389.010142 224.64  L 392.879682 224.64  L 392.879682 224.634407  L 389.010142 224.634407  z " style="fill:#4b89b9;opacity:0.4;" />
   </g>
   <g id="patch_102">
    <path clip-path="url(#p660aa5cbed)" d="M 392.879682 224.64  L 396.749223 224.64  L 396.749223 224.628814  L 392.879682 224.628814  z " style="fill:#4b89b9;opacity:0.4;" />
   </g>
   <g id="patch_103">
    <path clip-path="url(#p660aa5cbed)" d="M -18.165851 224.64  L -14.799851 224.64  L -14.799851 224.628814  L -18.165851 224.628814  z " style="fill:#d2553e;opacity:0.4;" />
   </g>
   <g id="patch_104">
    <path clip-path="url(#p660aa5cbed)" d="M -14.799851 224.64  L -11.43385 224.64  L -11.43385 224.628814  L -14.799851 224.628814  z " style="fill:#d2553e;opacity:0.4;" />
   </g>
   <g id="patch_105">
    <path clip-path="url(#p660aa5cbed)" d="M -11.43385 224.64  L -8.06785 224.64  L -8.06785 224.606443  L -11.43385 224.606443  z " style="fill:#d2553e;opacity:0.4;" />
   </g>
   <g id="patch_106">
    <path clip-path="url(#p660aa5cbed)" d="M -8.06785 224.64  L -4.701849 224.64  L -4.701849 224.595257  L -8.06785 224.595257  z " style="fill:#d2553e;opacity:0.4;" />
   </g>
   <g id="patch_107">
    <path clip-path="url(#p660aa5cbed)" d="M -4.701849 224.64  L -1.335849 224.64  L -1.335849 224.595257  L -4.701849 224.595257  z " style="fill:#d2553e;opacity:0.4;" />
   </g>
   <g id="patch_108">
    <path clip-path="url(#p660aa5cbed)" d="M -1.335849 224.64  L 2.030152 224.64  L 2.030152 224.550515  L -1.335849 224.550515  z " style="fill:#d2553e;opacity:0.4;" />
   </g>
   <g id="patch_109">
    <path clip-path="url(#p660aa5cbed)" d="M 2.030152 224.64  L 5.396152 224.64  L 5.396152 224.572886  L 2.030152 224.572886  z " style="fill:#d2553e;opacity:0.4;" />
   </g>
   <g id="patch_110">
    <path clip-path="url(#p660aa5cbed)" d="M 5.396152 224.64  L 8.762152 224.64  L 8.762152 224.461029  L 5.396152 224.461029  z " style="fill:#d2553e;opacity:0.4;" />
   </g>
   <g id="patch_111">
    <path clip-path="url(#p660aa5cbed)" d="M 8.762152 224.64  L 12.128153 224.64  L 12.128153 224.42188  L 8.762152 224.42188  z " style="fill:#d2553e;opacity:0.4;" />
   </g>
   <g id="patch_112">
    <path clip-path="url(#p660aa5cbed)" d="M 12.128153 224.64  L 15.494153 224.64  L 15.494153 224.298837  L 12.128153 224.298837  z " style="fill:#d2553e;opacity:0.4;" />
   </g>
   <g id="patch_113">
    <path clip-path="url(#p660aa5cbed)" d="M 15.494153 224.64  L 18.860154 224.64  L 18.860154 224.248502  L 15.494153 224.248502  z " style="fill:#d2553e;opacity:0.4;" />
   </g>
   <g id="patch_114">
    <path clip-path="url(#p660aa5cbed)" d="M 18.860154 224.64  L 22.226154 224.64  L 22.226154 224.164609  L 18.860154 224.164609  z " style="fill:#d2553e;opacity:0.4;" />
   </g>
   <g id="patch_115">
    <path clip-path="url(#p660aa5cbed)" d="M 22.226154 224.64  L 25.592155 224.64  L 25.592155 223.840225  L 22.226154 223.840225  z " style="fill:#d2553e;opacity:0.4;" />
   </g>
   <g id="patch_116">
    <path clip-path="url(#p660aa5cbed)" d="M 25.592155 224.64  L 28.958155 224.64  L 28.958155 223.582955  L 25.592155 223.582955  z " style="fill:#d2553e;opacity:0.4;" />
   </g>
   <g id="patch_117">
    <path clip-path="url(#p660aa5cbed)" d="M 28.958155 224.64  L 32.324156 224.64  L 32.324156 223.342463  L 28.958155 223.342463  z " style="fill:#d2553e;opacity:0.4;" />
   </g>
   <g id="patch_118">
    <path clip-path="url(#p660aa5cbed)" d="M 32.324156 224.64  L 35.690156 224.64  L 35.690156 222.811145  L 32.324156 222.811145  z " style="fill:#d2553e;opacity:0.4;" />
   </g>
   <g id="patch_119">
    <path clip-path="url(#p660aa5cbed)" d="M 35.690156 224.64  L 39.056157 224.64  L 39.056157 222.218305  L 35.690156 222.218305  z " style="fill:#d2553e;opacity:0.4;" />
   </g>
   <g id="patch_120">
    <path clip-path="url(#p660aa5cbed)" d="M 39.056157 224.64  L 42.422157 224.64  L 42.422157 221.508015  L 39.056157 221.508015  z " style="fill:#d2553e;opacity:0.4;" />
   </g>
   <g id="patch_121">
    <path clip-path="url(#p660aa5cbed)" d="M 42.422157 224.64  L 45.788158 224.64  L 45.788158 220.758576  L 42.422157 220.758576  z " style="fill:#d2553e;opacity:0.4;" />
   </g>
   <g id="patch_122">
    <path clip-path="url(#p660aa5cbed)" d="M 45.788158 224.64  L 49.154158 224.64  L 49.154158 218.952092  L 45.788158 218.952092  z " style="fill:#d2553e;opacity:0.4;" />
   </g>
   <g id="patch_123">
    <path clip-path="url(#p660aa5cbed)" d="M 49.154158 224.64  L 52.520159 224.64  L 52.520159 218.11876  L 49.154158 218.11876  z " style="fill:#d2553e;opacity:0.4;" />
   </g>
   <g id="patch_124">
    <path clip-path="url(#p660aa5cbed)" d="M 52.520159 224.64  L 55.886159 224.64  L 55.886159 216.138898  L 52.520159 216.138898  z " style="fill:#d2553e;opacity:0.4;" />
   </g>
   <g id="patch_125">
    <path clip-path="url(#p660aa5cbed)" d="M 55.886159 224.64  L 59.252159 224.64  L 59.252159 213.801096  L 55.886159 213.801096  z " style="fill:#d2553e;opacity:0.4;" />
   </g>
   <g id="patch_126">
    <path clip-path="url(#p660aa5cbed)" d="M 59.252159 224.64  L 62.61816 224.64  L 62.61816 211.138909  L 59.252159 211.138909  z " style="fill:#d2553e;opacity:0.4;" />
   </g>
   <g id="patch_127">
    <path clip-path="url(#p660aa5cbed)" d="M 62.61816 224.64  L 65.98416 224.64  L 65.98416 208.918555  L 62.61816 208.918555  z " style="fill:#d2553e;opacity:0.4;" />
   </g>
   <g id="patch_128">
    <path clip-path="url(#p660aa5cbed)" d="M 65.98416 224.64  L 69.350161 224.64  L 69.350161 203.834673  L 65.98416 203.834673  z " style="fill:#d2553e;opacity:0.4;" />
   </g>
   <g id="patch_129">
    <path clip-path="url(#p660aa5cbed)" d="M 69.350161 224.64  L 72.716161 224.64  L 72.716161 199.874949  L 69.350161 199.874949  z " style="fill:#d2553e;opacity:0.4;" />
   </g>
   <g id="patch_130">
    <path clip-path="url(#p660aa5cbed)" d="M 72.716161 224.64  L 76.082162 224.64  L 76.082162 195.19375  L 72.716161 195.19375  z " style="fill:#d2553e;opacity:0.4;" />
   </g>
   <g id="patch_131">
    <path clip-path="url(#p660aa5cbed)" d="M 76.082162 224.64  L 79.448162 224.64  L 79.448162 190.294431  L 76.082162 190.294431  z " style="fill:#d2553e;opacity:0.4;" />
   </g>
   <g id="patch_132">
    <path clip-path="url(#p660aa5cbed)" d="M 79.448162 224.64  L 82.814163 224.64  L 82.814163 182.995788  L 79.448162 182.995788  z " style="fill:#d2553e;opacity:0.4;" />
   </g>
   <g id="patch_133">
    <path clip-path="url(#p660aa5cbed)" d="M 82.814163 224.64  L 86.180163 224.64  L 86.180163 176.060679  L 82.814163 176.060679  z " style="fill:#d2553e;opacity:0.4;" />
   </g>
   <g id="patch_134">
    <path clip-path="url(#p660aa5cbed)" d="M 86.180163 224.64  L 89.546164 224.64  L 89.546164 168.577473  L 86.180163 168.577473  z " style="fill:#d2553e;opacity:0.4;" />
   </g>
   <g id="patch_135">
    <path clip-path="url(#p660aa5cbed)" d="M 89.546164 224.64  L 92.912164 224.64  L 92.912164 159.774358  L 89.546164 159.774358  z " style="fill:#d2553e;opacity:0.4;" />
   </g>
   <g id="patch_136">
    <path clip-path="url(#p660aa5cbed)" d="M 92.912164 224.64  L 96.278165 224.64  L 96.278165 150.149098  L 92.912164 150.149098  z " style="fill:#d2553e;opacity:0.4;" />
   </g>
   <g id="patch_137">
    <path clip-path="url(#p660aa5cbed)" d="M 96.278165 224.64  L 99.644165 224.64  L 99.644165 139.069702  L 96.278165 139.069702  z " style="fill:#d2553e;opacity:0.4;" />
   </g>
   <g id="patch_138">
    <path clip-path="url(#p660aa5cbed)" d="M 99.644165 224.64  L 103.010165 224.64  L 103.010165 128.409768  L 99.644165 128.409768  z " style="fill:#d2553e;opacity:0.4;" />
   </g>
   <g id="patch_139">
    <path clip-path="url(#p660aa5cbed)" d="M 103.010165 224.64  L 106.376166 224.64  L 106.376166 118.879586  L 103.010165 118.879586  z " style="fill:#d2553e;opacity:0.4;" />
   </g>
   <g id="patch_140">
    <path clip-path="url(#p660aa5cbed)" d="M 106.376166 224.64  L 109.742166 224.64  L 109.742166 106.631288  L 106.376166 106.631288  z " style="fill:#d2553e;opacity:0.4;" />
   </g>
   <g id="patch_141">
    <path clip-path="url(#p660aa5cbed)" d="M 109.742166 224.64  L 113.108167 224.64  L 113.108167 95.652563  L 109.742166 95.652563  z " style="fill:#d2553e;opacity:0.4;" />
   </g>
   <g id="patch_142">
    <path clip-path="url(#p660aa5cbed)" d="M 113.108167 224.64  L 116.474167 224.64  L 116.474167 84.366232  L 113.108167 84.366232  z " style="fill:#d2553e;opacity:0.4;" />
   </g>
   <g id="patch_143">
    <path clip-path="url(#p660aa5cbed)" d="M 116.474167 224.64  L 119.840168 224.64  L 119.840168 73.476992  L 116.474167 73.476992  z " style="fill:#d2553e;opacity:0.4;" />
   </g>
   <g id="patch_144">
    <path clip-path="url(#p660aa5cbed)" d="M 119.840168 224.64  L 123.206168 224.64  L 123.206168 63.930032  L 119.840168 63.930032  z " style="fill:#d2553e;opacity:0.4;" />
   </g>
   <g id="patch_145">
    <path clip-path="url(#p660aa5cbed)" d="M 123.206168 224.64  L 126.572169 224.64  L 126.572169 55.244367  L 123.206168 55.244367  z " style="fill:#d2553e;opacity:0.4;" />
   </g>
   <g id="patch_146">
    <path clip-path="url(#p660aa5cbed)" d="M 126.572169 224.64  L 129.938169 224.64  L 129.938169 44.584433  L 126.572169 44.584433  z " style="fill:#d2553e;opacity:0.4;" />
   </g>
   <g id="patch_147">
    <path clip-path="url(#p660aa5cbed)" d="M 129.938169 224.64  L 133.30417 224.64  L 133.30417 38.068786  L 129.938169 38.068786  z " style="fill:#d2553e;opacity:0.4;" />
   </g>
   <g id="patch_148">
    <path clip-path="url(#p660aa5cbed)" d="M 133.30417 224.64  L 136.67017 224.64  L 136.67017 29.724284  L 133.30417 29.724284  z " style="fill:#d2553e;opacity:0.4;" />
   </g>
   <g id="patch_149">
    <path clip-path="url(#p660aa5cbed)" d="M 136.67017 224.64  L 140.036171 224.64  L 140.036171 23.80707  L 136.67017 23.80707  z " style="fill:#d2553e;opacity:0.4;" />
   </g>
   <g id="patch_150">
    <path clip-path="url(#p660aa5cbed)" d="M 140.036171 224.64  L 143.402171 224.64  L 143.402171 21.676201  L 140.036171 21.676201  z " style="fill:#d2553e;opacity:0.4;" />
   </g>
   <g id="patch_151">
    <path clip-path="url(#p660aa5cbed)" d="M 143.402171 224.64  L 146.768172 224.64  L 146.768172 17.554286  L 143.402171 17.554286  z " style="fill:#d2553e;opacity:0.4;" />
   </g>
   <g id="patch_152">
    <path clip-path="url(#p660aa5cbed)" d="M 146.768172 224.64  L 150.134172 224.64  L 150.134172 20.121395  L 146.768172 20.121395  z " style="fill:#d2553e;opacity:0.4;" />
   </g>
   <g id="patch_153">
    <path clip-path="url(#p660aa5cbed)" d="M 150.134172 224.64  L 153.500172 224.64  L 153.500172 22.330562  L 150.134172 22.330562  z " style="fill:#d2553e;opacity:0.4;" />
   </g>
   <g id="patch_154">
    <path clip-path="url(#p660aa5cbed)" d="M 153.500172 224.64  L 156.866173 224.64  L 156.866173 25.401026  L 153.500172 25.401026  z " style="fill:#d2553e;opacity:0.4;" />
   </g>
   <g id="patch_155">
    <path clip-path="url(#p660aa5cbed)" d="M 156.866173 224.64  L 160.232173 224.64  L 160.232173 30.619136  L 156.866173 30.619136  z " style="fill:#d2553e;opacity:0.4;" />
   </g>
   <g id="patch_156">
    <path clip-path="url(#p660aa5cbed)" d="M 160.232173 224.64  L 163.598174 224.64  L 163.598174 36.10011  L 160.232173 36.10011  z " style="fill:#d2553e;opacity:0.4;" />
   </g>
   <g id="patch_157">
    <path clip-path="url(#p660aa5cbed)" d="M 163.598174 224.64  L 166.964174 224.64  L 166.964174 44.137006  L 163.598174 44.137006  z " style="fill:#d2553e;opacity:0.4;" />
   </g>
   <g id="patch_158">
    <path clip-path="url(#p660aa5cbed)" d="M 166.964174 224.64  L 170.330175 224.64  L 170.330175 53.510589  L 166.964174 53.510589  z " style="fill:#d2553e;opacity:0.4;" />
   </g>
   <g id="patch_159">
    <path clip-path="url(#p660aa5cbed)" d="M 170.330175 224.64  L 173.696175 224.64  L 173.696175 63.47142  L 170.330175 63.47142  z " style="fill:#d2553e;opacity:0.4;" />
   </g>
   <g id="patch_160">
    <path clip-path="url(#p660aa5cbed)" d="M 173.696175 224.64  L 177.062176 224.64  L 177.062176 74.16491  L 173.696175 74.16491  z " style="fill:#d2553e;opacity:0.4;" />
   </g>
   <g id="patch_161">
    <path clip-path="url(#p660aa5cbed)" d="M 177.062176 224.64  L 180.428176 224.64  L 180.428176 83.063103  L 177.062176 83.063103  z " style="fill:#d2553e;opacity:0.4;" />
   </g>
   <g id="patch_162">
    <path clip-path="url(#p660aa5cbed)" d="M 180.428176 224.64  L 183.794177 224.64  L 183.794177 96.564194  L 180.428176 96.564194  z " style="fill:#d2553e;opacity:0.4;" />
   </g>
   <g id="patch_163">
    <path clip-path="url(#p660aa5cbed)" d="M 183.794177 224.64  L 187.160177 224.64  L 187.160177 108.051867  L 183.794177 108.051867  z " style="fill:#d2553e;opacity:0.4;" />
   </g>
   <g id="patch_164">
    <path clip-path="url(#p660aa5cbed)" d="M 187.160177 224.64  L 190.526178 224.64  L 190.526178 117.660349  L 187.160177 117.660349  z " style="fill:#d2553e;opacity:0.4;" />
   </g>
   <g id="patch_165">
    <path clip-path="url(#p660aa5cbed)" d="M 190.526178 224.64  L 193.892178 224.64  L 193.892178 129.002608  L 190.526178 129.002608  z " style="fill:#d2553e;opacity:0.4;" />
   </g>
   <g id="patch_166">
    <path clip-path="url(#p660aa5cbed)" d="M 193.892178 224.64  L 197.258178 224.64  L 197.258178 139.942183  L 193.892178 139.942183  z " style="fill:#d2553e;opacity:0.4;" />
   </g>
   <g id="patch_167">
    <path clip-path="url(#p660aa5cbed)" d="M 197.258178 224.64  L 200.624179 224.64  L 200.624179 150.104355  L 197.258178 150.104355  z " style="fill:#d2553e;opacity:0.4;" />
   </g>
   <g id="patch_168">
    <path clip-path="url(#p660aa5cbed)" d="M 200.624179 224.64  L 203.990179 224.64  L 203.990179 159.114404  L 200.624179 159.114404  z " style="fill:#d2553e;opacity:0.4;" />
   </g>
   <g id="patch_169">
    <path clip-path="url(#p660aa5cbed)" d="M 203.990179 224.64  L 207.35618 224.64  L 207.35618 168.82915  L 203.990179 168.82915  z " style="fill:#d2553e;opacity:0.4;" />
   </g>
   <g id="patch_170">
    <path clip-path="url(#p660aa5cbed)" d="M 207.35618 224.64  L 210.72218 224.64  L 210.72218 176.23965  L 207.35618 176.23965  z " style="fill:#d2553e;opacity:0.4;" />
   </g>
   <g id="patch_171">
    <path clip-path="url(#p660aa5cbed)" d="M 210.72218 224.64  L 214.088181 224.64  L 214.088181 184.147911  L 210.72218 184.147911  z " style="fill:#d2553e;opacity:0.4;" />
   </g>
   <g id="patch_172">
    <path clip-path="url(#p660aa5cbed)" d="M 214.088181 224.64  L 217.454181 224.64  L 217.454181 190.305617  L 214.088181 190.305617  z " style="fill:#d2553e;opacity:0.4;" />
   </g>
   <g id="patch_173">
    <path clip-path="url(#p660aa5cbed)" d="M 217.454181 224.64  L 220.820182 224.64  L 220.820182 196.396209  L 217.454181 196.396209  z " style="fill:#d2553e;opacity:0.4;" />
   </g>
   <g id="patch_174">
    <path clip-path="url(#p660aa5cbed)" d="M 220.820182 224.64  L 224.186182 224.64  L 224.186182 200.764209  L 220.820182 200.764209  z " style="fill:#d2553e;opacity:0.4;" />
   </g>
   <g id="patch_175">
    <path clip-path="url(#p660aa5cbed)" d="M 224.186182 224.64  L 227.552183 224.64  L 227.552183 205.121024  L 224.186182 205.121024  z " style="fill:#d2553e;opacity:0.4;" />
   </g>
   <g id="patch_176">
    <path clip-path="url(#p660aa5cbed)" d="M 227.552183 224.64  L 230.918183 224.64  L 230.918183 208.655692  L 227.552183 208.655692  z " style="fill:#d2553e;opacity:0.4;" />
   </g>
   <g id="patch_177">
    <path clip-path="url(#p660aa5cbed)" d="M 230.918183 224.64  L 234.284184 224.64  L 234.284184 211.865976  L 230.918183 211.865976  z " style="fill:#d2553e;opacity:0.4;" />
   </g>
   <g id="patch_178">
    <path clip-path="url(#p660aa5cbed)" d="M 234.284184 224.64  L 237.650184 224.64  L 237.650184 213.817874  L 234.284184 213.817874  z " style="fill:#d2553e;opacity:0.4;" />
   </g>
   <g id="patch_179">
    <path clip-path="url(#p660aa5cbed)" d="M 237.650184 224.64  L 241.016185 224.64  L 241.016185 216.357019  L 237.650184 216.357019  z " style="fill:#d2553e;opacity:0.4;" />
   </g>
   <g id="patch_180">
    <path clip-path="url(#p660aa5cbed)" d="M 241.016185 224.64  L 244.382185 224.64  L 244.382185 218.11876  L 241.016185 218.11876  z " style="fill:#d2553e;opacity:0.4;" />
   </g>
   <g id="patch_181">
    <path clip-path="url(#p660aa5cbed)" d="M 244.382185 224.64  L 247.748185 224.64  L 247.748185 219.461039  L 244.382185 219.461039  z " style="fill:#d2553e;opacity:0.4;" />
   </g>
   <g id="patch_182">
    <path clip-path="url(#p660aa5cbed)" d="M 247.748185 224.64  L 251.114186 224.64  L 251.114186 220.74739  L 247.748185 220.74739  z " style="fill:#d2553e;opacity:0.4;" />
   </g>
   <g id="patch_183">
    <path clip-path="url(#p660aa5cbed)" d="M 251.114186 224.64  L 254.480186 224.64  L 254.480186 221.435308  L 251.114186 221.435308  z " style="fill:#d2553e;opacity:0.4;" />
   </g>
   <g id="patch_184">
    <path clip-path="url(#p660aa5cbed)" d="M 254.480186 224.64  L 257.846187 224.64  L 257.846187 222.223897  L 254.480186 222.223897  z " style="fill:#d2553e;opacity:0.4;" />
   </g>
   <g id="patch_185">
    <path clip-path="url(#p660aa5cbed)" d="M 257.846187 224.64  L 261.212187 224.64  L 261.212187 222.850294  L 257.846187 222.850294  z " style="fill:#d2553e;opacity:0.4;" />
   </g>
   <g id="patch_186">
    <path clip-path="url(#p660aa5cbed)" d="M 261.212187 224.64  L 264.578188 224.64  L 264.578188 223.336871  L 261.212187 223.336871  z " style="fill:#d2553e;opacity:0.4;" />
   </g>
   <g id="patch_187">
    <path clip-path="url(#p660aa5cbed)" d="M 264.578188 224.64  L 267.944188 224.64  L 267.944188 223.549398  L 264.578188 223.549398  z " style="fill:#d2553e;opacity:0.4;" />
   </g>
   <g id="patch_188">
    <path clip-path="url(#p660aa5cbed)" d="M 267.944188 224.64  L 271.310189 224.64  L 271.310189 223.834632  L 267.944188 223.834632  z " style="fill:#d2553e;opacity:0.4;" />
   </g>
   <g id="patch_189">
    <path clip-path="url(#p660aa5cbed)" d="M 271.310189 224.64  L 274.676189 224.64  L 274.676189 224.175795  L 271.310189 224.175795  z " style="fill:#d2553e;opacity:0.4;" />
   </g>
   <g id="patch_190">
    <path clip-path="url(#p660aa5cbed)" d="M 274.676189 224.64  L 278.04219 224.64  L 278.04219 224.198166  L 274.676189 224.198166  z " style="fill:#d2553e;opacity:0.4;" />
   </g>
   <g id="patch_191">
    <path clip-path="url(#p660aa5cbed)" d="M 278.04219 224.64  L 281.40819 224.64  L 281.40819 224.270873  L 278.04219 224.270873  z " style="fill:#d2553e;opacity:0.4;" />
   </g>
   <g id="patch_192">
    <path clip-path="url(#p660aa5cbed)" d="M 281.40819 224.64  L 284.774191 224.64  L 284.774191 224.466622  L 281.40819 224.466622  z " style="fill:#d2553e;opacity:0.4;" />
   </g>
   <g id="patch_193">
    <path clip-path="url(#p660aa5cbed)" d="M 284.774191 224.64  L 288.140191 224.64  L 288.140191 224.477808  L 284.774191 224.477808  z " style="fill:#d2553e;opacity:0.4;" />
   </g>
   <g id="patch_194">
    <path clip-path="url(#p660aa5cbed)" d="M 288.140191 224.64  L 291.506191 224.64  L 291.506191 224.516958  L 288.140191 224.516958  z " style="fill:#d2553e;opacity:0.4;" />
   </g>
   <g id="patch_195">
    <path clip-path="url(#p660aa5cbed)" d="M 291.506191 224.64  L 294.872192 224.64  L 294.872192 224.550515  L 291.506191 224.550515  z " style="fill:#d2553e;opacity:0.4;" />
   </g>
   <g id="patch_196">
    <path clip-path="url(#p660aa5cbed)" d="M 294.872192 224.64  L 298.238192 224.64  L 298.238192 224.606443  L 294.872192 224.606443  z " style="fill:#d2553e;opacity:0.4;" />
   </g>
   <g id="patch_197">
    <path clip-path="url(#p660aa5cbed)" d="M 298.238192 224.64  L 301.604193 224.64  L 301.604193 224.612036  L 298.238192 224.612036  z " style="fill:#d2553e;opacity:0.4;" />
   </g>
   <g id="patch_198">
    <path clip-path="url(#p660aa5cbed)" d="M 301.604193 224.64  L 304.970193 224.64  L 304.970193 224.623222  L 301.604193 224.623222  z " style="fill:#d2553e;opacity:0.4;" />
   </g>
   <g id="patch_199">
    <path clip-path="url(#p660aa5cbed)" d="M 304.970193 224.64  L 308.336194 224.64  L 308.336194 224.628814  L 304.970193 224.628814  z " style="fill:#d2553e;opacity:0.4;" />
   </g>
   <g id="patch_200">
    <path clip-path="url(#p660aa5cbed)" d="M 308.336194 224.64  L 311.702194 224.64  L 311.702194 224.617629  L 308.336194 224.617629  z " style="fill:#d2553e;opacity:0.4;" />
   </g>
   <g id="patch_201">
    <path clip-path="url(#p660aa5cbed)" d="M 311.702194 224.64  L 315.068195 224.64  L 315.068195 224.64  L 311.702194 224.64  z " style="fill:#d2553e;opacity:0.4;" />
   </g>
   <g id="patch_202">
    <path clip-path="url(#p660aa5cbed)" d="M 315.068195 224.64  L 318.434195 224.64  L 318.434195 224.634407  L 315.068195 224.634407  z " style="fill:#d2553e;opacity:0.4;" />
   </g>
   <g id="patch_203">
    <path d="M 10.7 224.64  L 10.7 7.2  " style="fill:none;stroke:#ffffff;stroke-linecap:square;stroke-linejoin:miter;" />
   </g>
   <g id="patch_204">
    <path d="M 345.5 224.64  L 345.5 7.2  " style="fill:none;stroke:#ffffff;stroke-linecap:square;stroke-linejoin:miter;" />
   </g>
   <g id="patch_205">
    <path d="M 10.7 224.64  L 345.5 224.64  " style="fill:none;stroke:#ffffff;stroke-linecap:square;stroke-linejoin:miter;" />
   </g>
   <g id="patch_206">
    <path d="M 10.7 7.2  L 345.5 7.2  " style="fill:none;stroke:#ffffff;stroke-linecap:square;stroke-linejoin:miter;" />
   </g>
  </g>
 </g>
 <defs>
  <clipPath id="p660aa5cbed">
   <rect height="217.44" width="334.8" x="10.7" y="7.2" />
  </clipPath>
 </defs>
</svg>